<svg width="700" height="700" viewBox="0 0 700 700" fill="none" xmlns="http://www.w3.org/2000/svg">
<g id="Frame 1">
<path id="Vector" d="M350 700C543.3 700 700 543.3 700 350C700 156.7 543.3 0 350 0C156.7 0 0 156.7 0 350C0 543.3 156.7 700 350 700Z" fill="#D9B127"/>
<circle id="Ellipse 1" cx="349.5" cy="350.5" r="326.5" fill="#FFD131"/>
<g id="spin">
<path id="Vector 2" d="M187.141 209.518C176.401 205.289 189.206 183.547 187.141 183.761C183.423 184.145 160.291 214.516 160.291 214.516C160.291 214.516 140.463 242.579 134.267 273.719C128.071 304.858 132.615 337.535 136.746 356.372C140.876 375.209 153.269 416.728 199.533 454.018C245.798 491.309 265.027 503.611 276.778 513.222C288.53 522.833 304.868 532.827 304.868 545.514C304.868 558.201 278.844 558.585 278.844 561.66C278.844 564.736 325.522 568.196 350.719 565.889C375.917 563.583 405.245 555.894 431.682 539.363C458.119 522.833 485.795 495.922 500.253 468.627C514.71 441.332 521.32 417.497 525.45 398.66C529.581 379.823 537.843 332.153 540.734 321.004C543.626 309.855 548.996 290.634 559.323 290.634C569.65 290.634 578.737 304.089 580.39 304.473C582.042 304.858 582.042 304.089 572.954 281.792C563.867 259.494 551.887 242.195 531.647 221.051C511.406 199.907 499.84 194.909 465.141 178.379C430.443 161.848 392.027 167.614 375.504 167.614C358.981 168.768 328.826 176.072 300.737 183.761C272.648 191.449 243.732 202.982 230.927 206.442C218.122 209.902 200.359 216.053 187.141 209.518Z" fill="black"/>
<g id="logo">
<path id="Vector_2" fill-rule="evenodd" clip-rule="evenodd" d="M350 232C381.296 232 411.309 244.432 433.439 266.561C455.568 288.691 468 318.704 468 350C468 395.066 445.552 424.754 419.567 445.071C414.352 449.15 419.022 449.057 425.083 451.464C436.274 455.908 455.522 459.256 449.434 461.61C434.866 467.237 362.823 468 350 468C318.704 468 288.691 455.568 266.561 433.439C244.432 411.309 232 381.296 232 350C232 318.704 244.432 288.691 266.561 266.561C288.691 244.432 318.704 232 350 232Z" fill="#FFD131"/>
<path id="Vector_3" d="M350.232 451.07C405.322 451.07 449.982 406.41 449.982 351.319C449.982 296.228 405.322 251.568 350.232 251.568C295.141 251.568 250.481 296.228 250.481 351.319C250.481 406.41 295.141 451.07 350.232 451.07Z" fill="black"/>
<path id="Vector_4" d="M350.232 439.592C398.984 439.592 438.505 400.071 438.505 351.319C438.505 302.567 398.984 263.046 350.232 263.046C301.48 263.046 261.958 302.567 261.958 351.319C261.958 400.071 301.48 439.592 350.232 439.592Z" fill="#FFD131"/>
<path id="Vector_5" d="M350.232 425.894C391.419 425.894 424.807 392.506 424.807 351.319C424.807 310.132 391.419 276.743 350.232 276.743C309.045 276.743 275.656 310.132 275.656 351.319C275.656 392.506 309.045 425.894 350.232 425.894Z" fill="black"/>
<path id="Vector_6" fill-rule="evenodd" clip-rule="evenodd" d="M349.46 286.467C358.895 286.434 368.23 288.404 376.845 292.25C385.461 296.095 393.162 301.726 399.437 308.771C400.73 310.228 387.631 315.265 388.788 316.821C389.194 317.369 404.616 316.18 405.022 316.821C411.726 326.981 415.382 338.847 415.558 351.018C415.558 386.669 385.965 415.571 349.46 415.571C329.123 415.571 307.566 403.984 295.441 389.875C293.544 387.667 309.202 388.251 307.617 385.816C305.78 382.975 290.727 382.837 289.354 379.729C285.589 370.614 283.557 360.878 283.363 351.018C283.363 315.368 312.956 286.467 349.46 286.467ZM350.232 296.528C321.258 296.011 295.476 318.54 293.412 347.26C292.759 356.688 294.663 366.117 298.924 374.552C300.64 377.989 341.765 380.765 344.144 383.787C346.522 386.809 310.107 390.025 313.013 392.513C323.341 401.44 336.581 406.276 350.232 406.109C381.359 405.555 407.254 378.184 405.022 347.26C404.434 339.255 402.014 331.492 397.95 324.571C396.339 321.811 354.321 323.319 352.261 320.88C351.072 319.471 362.62 316.807 372.448 314.386C380.027 312.511 386.586 310.776 385.494 309.861C375.607 301.521 363.163 296.816 350.232 296.528Z" fill="#FFD131"/>
</g>
</g>
</g>
</svg>
