<svg xmlns="http://www.w3.org/2000/svg" width="500" height="500" viewBox="0 0 500 500">
  <defs>
    <style>
      .cls-1 {
        fill: #d9b127;
      }

      .cls-2, .cls-3 {
        fill: #ffd131;
      }

      .cls-2 {
        fill-rule: evenodd;
      }
    </style>
  </defs>
  <circle class="cls-1" cx="249.5" cy="249.5" r="187.5"/>
  <circle cx="249.5" cy="249.5" r="166.906"/>
  <path class="cls-2" d="M250,75A175,175,0,1,1,75,250,175,175,0,0,1,250,75Zm7.211,59.4c-23.734,5.393-42.9,16.78-49.617,23.029-12.119,11.277-18.383,23.976-24.963,42.541a426.283,426.283,0,0,0-14,48.579c-11.239,24.6-23.775,45.33-34.274,43.68-8.894-1.4-11.723-18.944-13.716-18.445-2.4.6-1.962,26.869,12.888,50.989a93.412,93.412,0,0,0,36.772,33.748,96.439,96.439,0,0,0,70.626,6.9c5.883-1.729,13.983-5.353,21.988-9.817,9.695-5.406,17.664-10.867,28.145-15.347a83.641,83.641,0,0,1,22.6-4.706c9.631-.405,15.771,1.837,18.144,4.384,6.5,6.977,1.636,20.484,3.9,21.274,2.348,0.82,10.553-12.487,18.373-33.967,7.04-19.339,10.792-39.857,10.794-49.353,0-24.772-6.7-42.137-13.459-51.823-4.039-5.787-17.954-17.592-32.972-27.169-9.335-5.954-23.323-14.181-32.2-30.371-5.412-9.872-5.781-16.568-3.9-21.274,4.092-10.221,19.687-12.164,19.326-14.533C301.267,130.068,281.525,128.879,257.211,134.4Z"/>
  <path class="cls-2" d="M250,191.851A58.149,58.149,0,0,1,308.149,250c0,22.208-11.062,36.838-23.867,46.85-2.57,2.01-.269,1.964,2.718,3.15,5.515,2.19,15,3.84,12,5-7.179,2.773-42.681,3.149-49,3.149A58.149,58.149,0,0,1,250,191.851ZM250,308"/>
  <circle cx="250" cy="250" r="49.156"/>
  <circle class="cls-3" cx="250" cy="250" r="43.5"/>
  <circle cx="250" cy="250" r="36.75"/>
  <path class="cls-2" d="M249.62,218.042a32.825,32.825,0,0,1,24.628,10.991c0.637,0.718-5.818,3.2-5.248,3.967,0.2,0.27,7.8-.316,8,0a31.42,31.42,0,0,1,5.192,16.852c0,17.568-14.583,31.811-32.572,31.811-10.022,0-20.645-5.71-26.62-12.663-0.935-1.088,6.781-.8,6-2-0.905-1.4-8.323-1.468-9-3a39.077,39.077,0,0,1-2.952-14.148C217.048,232.284,231.631,218.042,249.62,218.042ZM250,223c-14.278-.255-26.983,10.847-28,25a25.866,25.866,0,0,0,2.716,13.449c0.846,1.694,21.112,3.062,22.284,4.551s-16.773,3.074-15.341,4.3A27.532,27.532,0,0,0,250,277c15.339-.273,28.1-13.761,27-29a25.816,25.816,0,0,0-3.485-11.181c-0.794-1.36-21.5-.617-22.515-1.819-0.586-.694,5.105-2.007,9.948-3.2,3.735-.924,6.967-1.779,6.429-2.23A27.914,27.914,0,0,0,250,223Z"/>
</svg>
