<svg xmlns="http://www.w3.org/2000/svg" width="700" height="700" viewBox="0 0 700 700">
  <defs>
    <style>
      .cls-1 {
        fill: #d9b127;
      }

      .cls-2, .cls-3 {
        fill: #ffd131;
      }

      .cls-2 {
        fill-rule: evenodd;
      }
    </style>
  </defs>
  <circle class="cls-1" cx="350.765" cy="350.765" r="349.765"/>
  <circle cx="357.578" cy="362.672" r="260.047"/>
  <path class="cls-2" d="M351.69,25.252c180.283,0,326.431,146.156,326.431,326.449S531.973,678.15,351.69,678.15,25.26,531.994,25.26,351.7,171.408,25.252,351.69,25.252ZM365.144,136.08c-44.274,10.06-80.029,31.3-92.556,42.958-22.605,21.036-34.291,44.725-46.564,79.355a795.058,795.058,0,0,0-26.109,90.619c-20.966,45.895-44.35,84.559-63.935,81.48-16.591-2.609-21.868-35.338-25.586-34.408-4.481,1.121-3.659,50.122,24.042,95.116,16.518,26.832,40.6,48.508,68.594,62.953,42.318,21.835,90.665,24.939,131.745,12.867,10.974-3.225,26.083-9.986,41.016-18.313,18.085-10.084,32.95-20.27,52.5-28.627,4.249-1.816,24.512-8.036,42.156-8.779,17.965-.756,29.419,3.427,33.845,8.177,12.128,13.015,3.052,38.212,7.269,39.684,4.381,1.53,19.686-23.293,34.273-63.361,13.133-36.075,20.132-74.349,20.135-92.062,0.008-46.21-12.5-78.6-25.107-96.671-7.533-10.795-33.49-32.816-61.5-50.68-17.414-11.106-43.506-26.453-60.061-56.653-10.094-18.416-10.783-30.906-7.268-39.685,7.633-19.066,36.724-22.69,36.049-27.11C447.325,127.993,410.5,125.775,365.144,136.08Z"/>
  <path class="cls-2" d="M351.692,243.243a108.47,108.47,0,0,1,108.47,108.47c0,41.426-20.634,68.718-44.52,87.394-4.8,3.75-.5,3.663,5.07,5.875,10.288,4.085,27.985,7.163,22.384,9.327-13.391,5.174-79.616,5.874-91.4,5.874A108.47,108.47,0,0,1,351.692,243.243Zm0,216.663"/>
  <circle cx="351.688" cy="351.719" r="91.688"/>
  <circle class="cls-3" cx="351.687" cy="351.703" r="81.125"/>
  <circle cx="351.688" cy="351.703" r="68.531"/>
  <path class="cls-2" d="M350.983,292.1a61.231,61.231,0,0,1,45.941,20.5c1.188,1.339-10.852,5.959-9.789,7.4,0.371,0.5,14.546-.589,14.923,0a58.623,58.623,0,0,1,9.685,31.436c0,32.772-27.2,59.339-60.76,59.339-18.694,0-38.511-10.651-49.656-23.621-1.744-2.029,12.649-1.484,11.192-3.73-1.688-2.6-15.525-2.74-16.788-5.6a72.87,72.87,0,0,1-5.507-26.391C290.224,318.665,317.427,292.1,350.983,292.1Zm0.709,9.249c-26.634-.474-50.333,20.234-52.231,46.635a48.26,48.26,0,0,0,5.066,25.087c1.579,3.161,39.383,5.713,41.569,8.49,2.167,2.753-31.288,5.734-28.617,8.016a51.352,51.352,0,0,0,34.213,12.5c28.613-.51,52.414-25.67,50.366-54.1a48.179,48.179,0,0,0-6.5-20.856c-1.482-2.538-40.108-1.153-42-3.394-1.093-1.3,9.522-3.743,18.557-5.977,6.967-1.723,13-3.319,11.992-4.16A52.069,52.069,0,0,0,351.692,301.347Z"/>
</svg>
